<svg version="1.1" id="theme_welcome_title" xmlns="http://www.w3.org/2000/svg" xmlns:xlink="http://www.w3.org/1999/xlink" x="0px" y="0px" viewBox="0 0 595 100" enable-background="new 0 0 595 100" xml:space="preserve">
<g>
	<polygon fill="<?php print htmlspecialchars($colors['link']); ?>" points="17.3,31.1 24.4,31.1 35.1,58.3 46.2,28.8 56.9,58.3 68.3,31.1 75.3,31.1 56.7,75.5 46.1,46.4
		35.1,75.5 	"/>
	<path fill="<?php print htmlspecialchars($colors['link']); ?>" d="M24.3,31.3L35,58.8l11.1-29.6l10.7,29.6l11.3-27.6h6.8L56.6,75L46,45.9L35,75L17.5,31.3H24.3L24.3,31.3z"/>
	<path fill="<?php print htmlspecialchars($colors['link']); ?>" d="M87.5,73.3c-3.9,0-7.1-1.3-9.4-3.8c-2.3-2.5-3.6-5.9-3.6-10.1s1.2-7.4,3.5-10.1c2.3-2.5,5.5-3.8,9.2-3.8
		c3.9,0,6.9,1.3,9.1,3.7c2.2,2.4,3.4,5.9,3.4,10.2v1.6H81c0.2,2,0.9,3.7,2,4.8c1.3,1.3,2.8,1.8,4.6,1.8c1.5,0,2.7-0.3,3.6-1
		s2-2,3.3-3.9l0.1-0.1l5.3,3l-0.1,0.1c-0.7,1.4-1.7,2.4-2.4,3.5c-0.9,1-1.8,1.8-2.8,2.3c-1,0.6-2.1,1.2-3.3,1.4
		C90.1,73.1,88.8,73.3,87.5,73.3z M93.1,55.7c-0.9-3-2.8-4.5-5.8-4.5c-0.6,0-1.4,0.1-2,0.3s-1.3,0.5-1.7,0.9c-0.5,0.4-1,0.9-1.4,1.5
		c-0.3,0.5-0.5,1.2-0.7,1.8L93.1,55.7L93.1,55.7z"/>
	<path fill="<?php print htmlspecialchars($colors['link']); ?>" d="M99.4,60.9H80.8c0.1,2.1,0.9,3.8,2.1,5.1c1.3,1.3,2.8,1.9,4.7,1.9c1.5,0,2.7-0.3,3.7-1.2c1-0.6,2-2,3.3-3.9
		l5,2.8c-0.7,1.4-1.6,2.4-2.4,3.5c-0.9,1-1.8,1.8-2.8,2.3c-1,0.5-2.1,1.2-3.3,1.4s-2.4,0.4-3.8,0.4c-3.9,0-7-1.3-9.3-3.8
		c-2.3-2.4-3.6-5.8-3.6-10c0-4.1,1.2-7.4,3.5-10c2.3-2.4,5.3-3.8,9.1-3.8c3.8,0,6.8,1.3,9,3.7c2.2,2.4,3.4,5.8,3.4,10.1L99.4,60.9z
		 M93.3,56c-0.9-3.3-2.9-4.8-6-4.8c-0.7,0-1.5,0.1-2,0.3c-0.6,0.2-1.3,0.5-1.8,1c-0.5,0.5-1,0.9-1.4,1.6c-0.3,0.5-0.6,1.3-0.9,2
		h12.1V56z"/>
	<rect x="107" y="27.2" fill="<?php print htmlspecialchars($colors['link']); ?>" width="6.4" height="45.4"/>
	<path fill="<?php print htmlspecialchars($colors['link']); ?>" d="M113.1,27.4v45h-6v-45H113.1z"/>
	<path fill="<?php print htmlspecialchars($colors['link']); ?>" d="M133.7,73.3c-4,0-7.4-1.4-10.2-3.9c-2.7-2.7-4.1-5.9-4.1-9.9s1.5-7.2,4.1-10c2.8-2.7,6.1-4,10.2-4
		c2.5,0,5,0.6,7.3,1.9h0.1v8.6l-0.3-0.3c-1.4-1.7-2.5-2.8-3.7-3.5c-1-0.6-2.2-0.9-3.7-0.9c-2.2,0-4,0.7-5.5,2.3
		c-1.5,1.6-2.2,3.5-2.2,5.8s0.6,4.3,2.1,5.9c1.5,1.6,3.3,2.3,5.5,2.3c1.5,0,2.7-0.3,3.8-0.9c1-0.5,2.3-1.8,3.7-3.5l0.3-0.3v8.5H141
		C138.5,72.7,136.1,73.3,133.7,73.3z"/>
	<path fill="<?php print htmlspecialchars($colors['link']); ?>" d="M141,47.7v8.1c-1.4-1.7-2.5-2.8-3.7-3.5c-1.2-0.6-2.3-1-3.8-1c-2.2,0-4.1,0.7-5.6,2.3
		c-1.5,1.6-2.2,3.6-2.2,5.9c0,2.4,0.6,4.5,2.1,6c1.5,1.6,3.4,2.3,5.6,2.3c1.5,0,2.7-0.3,3.8-0.9c1.2-0.5,2.3-1.8,3.8-3.6V71
		c-2.4,1.3-4.9,1.9-7.3,1.9c-4,0-7.3-1.4-10.1-3.9c-2.7-2.5-4-5.9-4-9.6c0-3.9,1.4-7.1,4.1-9.9c2.8-2.7,6.1-4,10.1-4
		C136.2,45.8,138.7,46.4,141,47.7z"/>
	<path fill="<?php print htmlspecialchars($colors['link']); ?>" d="M160.4,73.3c-3.9,0-7.2-1.4-10-4c-2.7-2.7-4-6-4-10.1c0-3.8,1.4-7,4.1-9.6c2.7-2.7,6-4,10-4
		c3.9,0,7.2,1.4,10.1,4c2.7,2.7,4,6,4,10s-1.4,7.2-4.1,10C167.7,72.1,164.3,73.3,160.4,73.3z M160.5,51.3c-2.2,0-4.1,0.7-5.5,2.2
		c-1.4,1.5-2.1,3.5-2.1,5.8c0,2.5,0.6,4.6,2,6c1.4,1.5,3.3,2.2,5.5,2.2c2.3,0,4.1-0.7,5.5-2.2c1.4-1.5,2.1-3.5,2.1-5.9
		s-0.6-4.5-2.1-5.9C164.6,52.1,162.7,51.3,160.5,51.3z"/>
	<path fill="<?php print htmlspecialchars($colors['link']); ?>" d="M146.6,59.3c0-3.8,1.4-6.9,4-9.5c2.7-2.7,5.9-3.9,9.9-3.9c3.9,0,7.1,1.4,10,4c2.7,2.7,4,5.9,4,9.9
		s-1.4,7.1-4,9.9c-2.7,2.5-6,3.9-10,3.9c-3.9,0-7.1-1.4-9.9-4C147.9,66.6,146.6,63.3,146.6,59.3z M152.6,59.5c0,2.5,0.6,4.7,2.1,6.1
		c1.5,1.6,3.4,2.3,5.6,2.3c2.3,0,4.2-0.7,5.6-2.2c1.5-1.6,2.1-3.6,2.1-6c0-2.5-0.6-4.6-2.1-6c-1.5-1.6-3.4-2.3-5.6-2.3
		c-2.3,0-4.1,0.7-5.6,2.3C153.5,55,152.6,57,152.6,59.5z"/>
	<path fill="<?php print htmlspecialchars($colors['link']); ?>" d="M208,72.6V58c0-2.4-0.3-4.2-0.9-5.2c-0.5-1-1.6-1.5-2.9-1.5c-1.6,0-2.8,0.5-3.5,1.8c-0.7,1.3-1.2,3.3-1.2,5.9
		v13.6h-6.4V58.1c0-4.5-1.4-6.8-3.8-6.8c-1.7,0-2.8,0.5-3.6,1.8s-1.2,3.3-1.2,5.9v13.6h-6.4V46.3h6.4v2.1c1-1.2,2-1.8,2.7-2.2
		c0.9-0.4,2-0.6,3.4-0.6c2.9,0,5.2,1.3,6.9,3.7c1.9-2.4,4.5-3.7,7.7-3.7c5.9,0,8.9,3.7,8.9,10.8v16.2L208,72.6L208,72.6z"/>
	<path fill="<?php print htmlspecialchars($colors['link']); ?>" d="M178.4,46.5h6v2.4c1.2-1.3,2.1-2,3-2.4c0.9-0.4,2-0.6,3.3-0.6c2.9,0,5.2,1.3,6.9,3.8c1.9-2.5,4.5-3.8,7.7-3.8
		c5.8,0,8.8,3.6,8.8,10.6v16h-6V58.1c0-2.4-0.3-4.2-0.9-5.2s-1.7-1.6-3.1-1.6c-1.7,0-2.9,0.6-3.6,1.9c-0.7,1.3-1.2,3.3-1.2,6v13.4
		h-6V58.2c0-4.6-1.4-6.9-4-6.9c-1.7,0-2.9,0.6-3.7,1.9c-0.7,1.3-1.2,3.3-1.2,6v13.4h-6L178.4,46.5L178.4,46.5z"/>
	<path fill="<?php print htmlspecialchars($colors['link']); ?>" d="M233.3,73.3c-3.9,0-7.1-1.3-9.4-3.8c-2.3-2.5-3.6-5.9-3.6-10.1s1.2-7.4,3.5-10.1c2.3-2.5,5.5-3.8,9.2-3.8
		c3.9,0,6.9,1.3,9.1,3.7c2.2,2.4,3.4,5.9,3.4,10.2v1.6h-18.6c0.2,2,0.9,3.7,2,4.8c1.3,1.3,2.8,1.8,4.6,1.8c1.5,0,2.7-0.3,3.6-1
		c0.9-0.6,2-2,3.3-3.9l0.1-0.1l5.3,3l-0.1,0.1c-0.7,1.4-1.7,2.4-2.4,3.5c-0.9,1-1.8,1.8-2.8,2.3c-1,0.6-2.1,1.2-3.3,1.4
		C236,73.2,234.7,73.3,233.3,73.3z M239,55.7c-0.9-3-2.8-4.5-5.8-4.5c-0.6,0-1.4,0.1-2,0.3s-1.3,0.5-1.7,0.9c-0.5,0.4-1,0.9-1.4,1.5
		c-0.3,0.5-0.5,1.2-0.7,1.8L239,55.7L239,55.7z"/>
	<path fill="<?php print htmlspecialchars($colors['link']); ?>" d="M245.3,60.9h-18.7c0.1,2.1,0.9,3.8,2.1,5.1c1.3,1.3,2.8,1.9,4.7,1.9c1.5,0,2.7-0.3,3.7-1.2c1-0.6,2-2,3.3-3.9
		l5,2.8c-0.7,1.4-1.6,2.4-2.4,3.5c-0.9,1-1.8,1.8-2.8,2.3s-2.1,1.2-3.3,1.4s-2.4,0.4-3.8,0.4c-3.9,0-7-1.3-9.3-3.8
		c-2.3-2.4-3.6-5.8-3.6-10c0-4.1,1.2-7.4,3.5-10c2.3-2.4,5.3-3.8,9.1-3.8c3.8,0,6.8,1.3,9,3.7c2.2,2.4,3.4,5.8,3.4,10.1L245.3,60.9z
		 M239.2,56c-0.9-3.3-2.9-4.8-6-4.8c-0.7,0-1.5,0.1-2,0.3c-0.6,0.2-1.3,0.5-1.8,1c-0.5,0.4-1,0.9-1.4,1.6c-0.3,0.5-0.6,1.3-0.9,2
		h12.1L239.2,56L239.2,56z"/>
	<path fill="<?php print htmlspecialchars($colors['link']); ?>" d="M259.4,73.3c-1.2,0-2-0.3-2.8-1.2c-0.7-0.7-1.2-1.7-1.2-2.8c0-1,0.3-1.9,1.2-2.7c0.7-0.7,1.7-1.2,2.7-1.2
		s2,0.3,2.7,1.2c0.7,0.7,1.2,1.7,1.2,2.7c0,1.2-0.3,2-1.2,2.8C261.4,72.9,260.4,73.3,259.4,73.3z M256.3,63.5V31.1h6.4v32.4H256.3z"
		/>
	<path fill="<?php print htmlspecialchars($colors['link']); ?>" d="M255.7,69.5c0-1,0.3-1.9,1.2-2.5c0.7-0.7,1.6-1.2,2.5-1.2c1,0,1.9,0.3,2.5,1.2c0.7,0.7,1.2,1.6,1.2,2.5
		c0,1-0.3,1.9-1.2,2.7c-0.6,0.6-1.6,1.2-2.5,1.2c-1,0-1.9-0.3-2.7-1.2C256,71.5,255.7,70.6,255.7,69.5z M256.4,63.3v-32h6v32H256.4z
		"/>
</g>
<g>
	<path fill="<?php print htmlspecialchars($colors['link']); ?>" d="M311.4,24.2C325,24,331.6,30,331.6,40.7c0,11-7.4,18.2-21.5,18.2c-1.9,0-4.5-0.2-7.1-0.4v22.9h-2.8v-56
		C304,24.8,307.9,24.3,311.4,24.2z M320.7,54.3c4.6-2,7.8-6.8,7.8-13.3c0-9.7-5.8-14.1-17.3-14.1c-2.7,0-5.3,0.3-8.3,0.8v28.2
		c2.1,0.3,4.3,0.3,6.6,0.3C313.9,56.2,317.7,55.7,320.7,54.3z"/>
	<path fill="<?php print htmlspecialchars($colors['link']); ?>" d="M344.2,28.9c1.5,0,2.5,1,2.5,2.6c0,1.8-1.1,2.9-2.8,2.9c-1.6,0-2.7-1-2.7-2.6
		C341.3,30.1,342.4,28.9,344.2,28.9z M345.3,43v38.4h-2.7V43.2L345.3,43z"/>
	<path fill="<?php print htmlspecialchars($colors['link']); ?>" d="M374.1,42.2c5.3,0,8.6,2.4,10.9,6.6l-1.8,1.3c-2.8-3.4-5.2-5.3-9.4-5.3c-3.4,0-5.8,1.3-7.4,2.7
		c-3.2,2.6-5.5,7.5-5.5,15c0,11.6,5.5,17.4,13.4,17.4c2.6,0,6.5-0.9,9.9-2.4l0.9,2.1c-3.8,1.7-7.9,2.8-11.1,2.8
		c-9.9,0-16.1-7.8-16.1-19.5C358,50.6,364.6,42.2,374.1,42.2z"/>
	<path fill="<?php print htmlspecialchars($colors['link']); ?>" d="M423.7,43.1c-0.3,0.7-0.8,1.3-1.5,2.1l-14.3,15.1L423,78.9c0.8,0.8,1.5,1.8,1.7,2.5h-2.9l-15.5-19.2l-6.9,7.3
		v11.9h-2.7V18.5l2.7-0.2V66l21.4-22.9H423.7z"/>
	<path fill="<?php print htmlspecialchars($colors['link']); ?>" d="M437.4,18.3v57.4c0,2.9,0.8,4.1,2.5,4.1c0.8,0,2-0.2,3.4-0.7l0.7,2.2c-1.5,0.6-3.1,1-4.6,1
		c-2.9,0-4.6-1.8-4.6-5.7V18.5L437.4,18.3z"/>
	<path fill="<?php print htmlspecialchars($colors['link']); ?>" d="M467.2,41.9c8.6,0,12.9,6.8,12.9,14.8c0,1.9-0.2,3.7-0.4,5.6h-25.9c0,11.7,5.9,17.5,13.6,17.5
		c3.4,0,7.1-0.7,11-2.4l0.9,2.1c-4.1,1.8-8.2,2.8-12.4,2.8c-8.4,0-15.9-6.6-15.9-20C451.1,50.8,457.5,41.9,467.2,41.9z M454,59.9
		h23.4c0.1-1.1,0.2-2.3,0.2-3.5c0-6.5-3.7-11.9-10.3-11.9C459.8,44.4,454.7,50.3,454,59.9z"/>
	<path fill="<?php print htmlspecialchars($colors['link']); ?>" d="M502.9,42.2c4.1,0,8.2,1.5,10.8,3.5l-1.3,1.8c-2.7-1.8-5.7-2.9-9.2-2.9c-5.1,0-9,2.5-9,7.1c0,5,4.7,7,9.1,8.7
		c5.9,2.2,11.8,4.5,11.8,11.2c0,6.6-5.5,10.8-13,10.8c-5.5,0-9.3-2.2-12.3-4.4L491,76c2.9,2.1,6.3,3.9,10.8,3.9
		c5.9,0,10.3-2.9,10.3-8.1c0-5.6-5.4-7.2-10.8-9.4c-5.6-2.3-10.1-4.8-10.1-10.4C491.3,45.9,496.7,42.2,502.9,42.2z"/>
	<path fill="<?php print htmlspecialchars($colors['link']); ?>" d="M560.5,24.2c10.6,0,15.2,7,15.2,15.4c0,11.1-8.2,20.4-18.6,31.3l-7.7,8.1H577l0.2,2.5h-30.8l-0.4-2.9l6.8-7.4
		c13.4-13.5,19.9-21.9,19.9-31.3c0-7.3-4-12.9-12.1-12.9c-4.2,0-8.2,1.5-11.7,4.1l-1.6-2C551.1,25.8,555.6,24.2,560.5,24.2z"/>
</g>
</svg>
